<svg xmlns="http://www.w3.org/2000/svg" viewBox="0 0 64 64" role="img" aria-label="2GIS logo">
  <rect width="64" height="64" rx="14" fill="#00A14E" />
  <path d="M32 10c-7.5 0-14 5.8-14 14.4 0 5.8 3.1 10 8.6 14l-6.2 5.5c7.2 2.8 15.4 1.2 21.7-4 5.5-4.7 8.9-11.9 6.6-19C46.7 14.8 39.5 10 32 10Z" fill="#00C853" />
  <path d="M36 18.5c-3.7 0-6.7 3-6.7 7 0 2.8 1.7 5.1 4 6.1l-6.8 6.2a12 12 0 0 0 8.6 3.4c6.1 0 11-4.8 11-10.8 0-6-4.9-11-11-11Z" fill="#00B2FF" />
  <path d="M36 22c-1.6 0-3 1.4-3 3.3 0 2.1 1.6 3.7 3.6 3.7 1.7 0 3.4-1.5 3.4-3.5 0-2.3-1.8-3.5-4-3.5Z" fill="#fff" />
</svg>
