<svg xmlns="http://www.w3.org/2000/svg" viewBox="0 0 64 64" role="img" aria-label="Google Maps logo">
  <rect width="64" height="64" rx="14" fill="#F2F2F2" />
  <path d="M32 10c-7.2 0-13 6-13 13.4 0 10 13 24.6 13 24.6s13-14.5 13-24.6C45 16 39.2 10 32 10Z" fill="#4285F4" />
  <path d="M32 10c-7.2 0-13 6-13 13.4 0 3.2 1 6.3 3 9l10-11.4V10Z" fill="#34A853" />
  <path d="M32 10c4.2 0 7.7 2.3 9.8 5.7L32 22l-6-2.9V10Z" fill="#FBBC05" />
  <path d="M42.8 15.7C44.2 17.9 45 20.5 45 23.4c0 4.9-3.2 10.6-6.9 15.7l-6.1-6.8 10.8-16.6Z" fill="#EA4335" />
  <circle cx="32" cy="23.5" r="5.5" fill="#fff" />
</svg>
