<svg xmlns="http://www.w3.org/2000/svg" viewBox="0 0 64 64" role="img" aria-label="VK logo">
  <rect width="64" height="64" rx="14" fill="#0077FF" />
  <path d="M16 22c.3 10.2 5.5 18.4 14.7 18.4h.5v-6.5c3.4.4 6-2.9 7.1-4.5 1.5 2.2 3 4.2 4.9 6 1.3 1.2 5.3 3 6.5 1.7.5-.6.5-2.4 0-4.8-.6-2.6-3.7-7.6-3.6-7.8.1-.2 2.2-1.4 2.4-4.5 0-.1 0-1.2-.6-1.6-.9-.6-3.1-.3-6.8 6.6-.6 1.2-1.3 2.4-2.1 3.5-.8.9-1.6.8-2.4-.1-1.1-1.2-1.7-2.7-2.1-4.4-.3-1.6-.3-3.8-.3-5.7 0-1.7-.1-2.8-.6-3.6-.7-1.1-2.2-1.5-3.3-1.6-2.8-.3-5 0-5.2 0-.5.1-1.4.3-1.9.9-.3.4-.4.9-.4 1.3Z" fill="#fff" />
</svg>
