<svg xmlns="http://www.w3.org/2000/svg" viewBox="0 0 64 64" role="img" aria-label="WhatsApp logo">
  <rect width="64" height="64" rx="14" fill="#25D366" />
  <path
    d="M31.8 14c-9.1 0-16.6 7.2-16.6 16.1 0 2.8.8 5.5 2.2 7.9L15 50l12-3.1c1.6.5 3.4.7 5.1.7 9.1 0 16.6-7.2 16.6-16.1S40.9 14 31.8 14Z"
    fill="#fff"
  />
  <path
    d="M26 25.5c-.4-.8-1.2-1.6-2.1-1.6-.6 0-1 .4-1.2.8-.5.9-.8 2.3.3 4.3 1.1 2 3.3 4.3 7 6.7 4.1 2.7 6 2.9 7.3 2.5 1.1-.4 2-1.6 2.3-2.7.2-.9-.5-1.4-1.1-1.7-.8-.4-1.8-.9-2.5-.7-.6.2-1 1.3-1.4 1.6-.3.3-.6.3-1.2.1-1.1-.4-3.9-2-5.5-3.9-1-1.1-1.8-2.4-1.3-3.1.5-.6.8-.7 1.2-1.1.2-.2.3-.6.2-1-.1-.5-.8-2-1.8-3.2Z"
    fill="#25D366"
  />
</svg>
