<svg xmlns="http://www.w3.org/2000/svg" viewBox="0 0 64 64" role="img" aria-label="Xiaomi Mi logo">
  <defs>
    <linearGradient id="mi-orange" x1="0%" y1="0%" x2="100%" y2="100%">
      <stop offset="0%" stop-color="#ff7a00" />
      <stop offset="100%" stop-color="#ff5c00" />
    </linearGradient>
  </defs>
  <rect width="64" height="64" rx="12" fill="url(#mi-orange)" />
  <path
    fill="#ffffff"
    d="M18 20c2.21 0 4 .9 4 4.13V40h-4.5v-6.6c-.4.36-1.44 1.07-3.1 1.07-2.92 0-4.4-1.85-4.4-5.24V20h4.5v8.43c0 1.18.3 1.78 1.3 1.78.96 0 1.6-.67 1.6-1.78V20H18Zm12.6 0c2.2 0 3.9 1.66 3.9 4.18V40h-4.6V24.2c0-.98-.4-1.5-1.2-1.5-.8 0-1.4.52-1.4 1.5V40h-4.6V20h4.5v1.2c.7-.93 1.9-1.2 3.4-1.2Z"
  />
  <path
    fill="#ffffff"
    d="M46.6 20c2.9 0 4.7 1.52 4.7 4.34V40h-4.4v-1.38c-.76 1-1.98 1.62-3.6 1.62-3.6 0-5.9-2.6-5.9-6.62 0-4.05 2.24-6.7 6-6.7 1.54 0 2.76.52 3.5 1.4V24.2c0-1.04-.64-1.6-1.8-1.6-1.26 0-2.04.74-2.04 1.87h-4.5C38.46 21.84 41.5 20 46.6 20Zm-2.2 11.6c1.4 0 2.5-1.02 2.5-2.6 0-1.58-1.1-2.58-2.5-2.58-1.4 0-2.5 1-2.5 2.57 0 1.58 1.1 2.6 2.5 2.6Z"
  />
</svg>
